<svg width="31" height="24" viewBox="0 0 31 24" fill="none" xmlns="http://www.w3.org/2000/svg">
<path d="M27.6449 16.9201V19.9201C27.6463 20.1986 27.5746 20.4743 27.4344 20.7294C27.2942 20.9846 27.0886 21.2137 26.8308 21.402C26.5729 21.5902 26.2684 21.7336 25.9369 21.8228C25.6054 21.912 25.2541 21.9452 24.9056 21.9201C21.039 21.5857 17.3248 20.5342 14.0615 18.8501C11.0254 17.3148 8.45138 15.2663 6.52213 12.8501C4.39852 10.2413 3.07695 7.27109 2.6645 4.1801C2.6331 3.90356 2.67439 3.62486 2.78575 3.36172C2.89712 3.09859 3.07611 2.85679 3.31133 2.65172C3.54655 2.44665 3.83285 2.28281 4.152 2.17062C4.47115 2.05843 4.81615 2.00036 5.16505 2.0001H8.93473C9.54455 1.99532 10.1357 2.16718 10.5981 2.48363C11.0605 2.80008 11.3625 3.23954 11.4478 3.7201C11.607 4.68016 11.902 5.62282 12.3274 6.5301C12.4965 6.88802 12.5331 7.27701 12.4329 7.65098C12.3327 8.02494 12.0998 8.36821 11.762 8.6401L10.1662 9.9101C11.9549 12.4136 14.5597 14.4865 17.7055 15.9101L19.3013 14.6401C19.643 14.3712 20.0743 14.1859 20.5442 14.1062C21.0141 14.0264 21.5029 14.0556 21.9527 14.1901C23.0927 14.5286 24.2772 14.7635 25.4836 14.8901C26.094 14.9586 26.6515 15.2033 27.05 15.5776C27.4485 15.9519 27.6602 16.4297 27.6449 16.9201Z" stroke="#6379F4" stroke-width="2" stroke-linecap="round" stroke-linejoin="round"/>
</svg>
