<svg width="100" height="100" viewBox="0 0 100 100" fill="none" xmlns="http://www.w3.org/2000/svg">
<g filter="url(#filter0_d)">
<circle cx="50" cy="46" r="30" fill="#473AD1" fill-opacity="0.1"/>
</g>
<path d="M62.5 52.1501V55.9001C62.5015 56.2482 62.4301 56.5928 62.2907 56.9118C62.1512 57.2308 61.9467 57.5171 61.6901 57.7525C61.4336 57.9878 61.1308 58.167 60.801 58.2785C60.4712 58.39 60.1218 58.4315 59.775 58.4001C55.9286 57.9822 52.2338 56.6678 48.9875 54.5626C45.9673 52.6435 43.4067 50.0828 41.4875 47.0626C39.375 43.8016 38.0603 40.0889 37.65 36.2251C37.6188 35.8795 37.6599 35.5311 37.7707 35.2022C37.8814 34.8732 38.0595 34.571 38.2935 34.3146C38.5275 34.0583 38.8123 33.8535 39.1298 33.7133C39.4473 33.573 39.7905 33.5004 40.1375 33.5001H43.8875C44.4942 33.4942 45.0823 33.709 45.5422 34.1045C46.0022 34.5001 46.3026 35.0494 46.3875 35.6501C46.5458 36.8502 46.8394 38.0285 47.2625 39.1626C47.4307 39.61 47.4671 40.0963 47.3674 40.5637C47.2677 41.0312 47.0361 41.4603 46.7 41.8001L45.1125 43.3876C46.892 46.5171 49.4831 49.1082 52.6125 50.8876L54.2 49.3001C54.5399 48.964 54.969 48.7324 55.4364 48.6327C55.9039 48.533 56.3901 48.5694 56.8375 48.7376C57.9716 49.1608 59.15 49.4543 60.35 49.6126C60.9572 49.6983 61.5118 50.0041 61.9082 50.472C62.3046 50.9399 62.5152 51.5371 62.5 52.1501Z" stroke="#6379F4" stroke-width="2" stroke-linecap="round" stroke-linejoin="round"/>
<defs>
<filter id="filter0_d" x="0" y="0" width="100" height="100" filterUnits="userSpaceOnUse" color-interpolation-filters="sRGB">
<feFlood flood-opacity="0" result="BackgroundImageFix"/>
<feColorMatrix in="SourceAlpha" type="matrix" values="0 0 0 0 0 0 0 0 0 0 0 0 0 0 0 0 0 0 127 0"/>
<feOffset dy="4"/>
<feGaussianBlur stdDeviation="10"/>
<feColorMatrix type="matrix" values="0 0 0 0 0 0 0 0 0 0 0 0 0 0 0 0 0 0 0.05 0"/>
<feBlend mode="normal" in2="BackgroundImageFix" result="effect1_dropShadow"/>
<feBlend mode="normal" in="SourceGraphic" in2="effect1_dropShadow" result="shape"/>
</filter>
</defs>
</svg>
